# xmcd
#
# Track frame offsets:
#	150
#	21172
#	42202
#	68960
#	87461
#	107391
#	121271
#	145266
#	172464
#	186968
#	216631
#
# Disc length: 3126 seconds
#
# Revision: 1
# Processed by: cddbd v1.5.2PL0 Copyright (c) Steve Scherf et al.
# Submitted via: audiograbber 1.83.01
#
DISCID=a70c340b
DTITLE=Baby Dee - Goes Down to Amsterdam 2/2
DYEAR=2011
DGENRE=Ballad
TTITLE0=Regifted Light
TTITLE1=April Day
TTITLE2=Dance Of Diminishing Possibilities
TTITLE3=The Only Bones That Show
TTITLE4=Big Titty Bee Girl (From Dino Town)
TTITLE5=Look What The Wind Blew In
TTITLE6=Half A Chance
TTITLE7=Black But Comely
TTITLE8=Set Me As A Seal
TTITLE9=Morning Holds A Star
TTITLE10=The Song Of Self-Acceptance
EXTD=
EXTT0=
EXTT1=
EXTT2=
EXTT3=
EXTT4=
EXTT5=
EXTT6=
EXTT7=
EXTT8=
EXTT9=
EXTT10=
PLAYORDER=
